<svg xmlns="http://www.w3.org/2000/svg" xmlns:xlink="http://www.w3.org/1999/xlink" id="cloudy" x="0" y="0" version="1.1" viewBox="0 0 24 24" xml:space="preserve" style="enable-background:new 0 0 24 24"><style type="text/css">.st0{fill:none}.st1{fill-rule:evenodd;clip-rule:evenodd;fill:#e5e5e5;stroke:#000;stroke-linecap:round}.st2{fill:#fff}.st3{fill:#1d1d33}</style><rect width="24" height="24" class="st0"/><path d="M19.8,6.5c-0.6-2.4-2.6-4.2-5.1-4.2c-2.9,0-5.2,2.5-5.2,5.5c0,0.2,0,0.4,0,0.6C8.6,8.8,8,9.7,8,10.7	c0,1.4,1.1,2.6,2.4,2.6h9.3c1.8,0,3.3-1.5,3.3-3.4C23,8,21.6,6.5,19.8,6.5" class="st1"/><g><g><path d="M3.7,20.7c-1.8,0-3.2-1.4-3.2-3.2c0-1.3,0.8-2.5,2-3l0.3-0.1l0-0.4c0-0.3,0-0.5,0-0.8c0-4.1,3.3-7.4,7.5-7.4 c3.4,0,6.4,2.3,7.2,5.6l0.1,0.4l0.4,0c2.4,0.1,4.3,2,4.3,4.4c0,2.4-2,4.4-4.5,4.4L3.7,20.7L3.7,20.7z" class="st2"/><path d="M10.2,6.3c3.2,0,6,2.2,6.8,5.3l0.2,0.7l0.8,0c2.1,0.1,3.8,1.8,3.8,3.9c0,2.2-1.8,3.9-4,3.9H3.7 C2.2,20.2,1,19,1,17.5c0-1.1,0.7-2.1,1.7-2.5l0.7-0.3L3.3,14c0-0.3,0-0.5,0-0.7C3.3,9.4,6.4,6.3,10.2,6.3 M10.2,5.3 c-4.4,0-8,3.6-8,7.9c0,0.3,0,0.6,0,0.8C1,14.6,0,15.9,0,17.5c0,2,1.7,3.7,3.7,3.7h14.1c2.7,0,5-2.2,5-4.9c0-2.7-2.1-4.8-4.8-4.9 C17.1,7.9,14,5.3,10.2,5.3L10.2,5.3z" class="st3"/></g></g></svg>